ply
format ascii 1.0
element vertex 1680
property float x
property float y
property float z
property uchar red
property uchar green
property uchar blue
end_header
-87.3880 -107.4050 2.4960 252 211 77
-87.4231 -107.0935 2.4960 252 211 77
-87.5266 -106.7976 2.4960 252 211 77
-87.6934 -106.5321 2.4960 252 211 77
-87.9151 -106.3104 2.4960 252 211 77
-88.1806 -106.1436 2.4960 252 211 77
-88.4765 -106.0401 2.4960 252 211 77
-88.7880 -106.0050 2.4960 252 211 77
-89.0995 -106.0401 2.4960 252 211 77
-89.3954 -106.1436 2.4960 252 211 77
-89.6609 -106.3104 2.4960 252 211 77
-89.8826 -106.5321 2.4960 252 211 77
-90.0494 -106.7976 2.4960 252 211 77
-90.1529 -107.0935 2.4960 252 211 77
-90.1880 -107.4050 2.4960 252 211 77
-90.1529 -107.7165 2.4960 252 211 77
-90.0494 -108.0124 2.4960 252 211 77
-89.8826 -108.2779 2.4960 252 211 77
-89.6609 -108.4996 2.4960 252 211 77
-89.3954 -108.6664 2.4960 252 211 77
-89.0995 -108.7699 2.4960 252 211 77
-88.7880 -108.8050 2.4960 252 211 77
-88.4765 -108.7699 2.4960 252 211 77
-88.1806 -108.6664 2.4960 252 211 77
-87.9151 -108.4996 2.4960 252 211 77
-87.6934 -108.2779 2.4960 252 211 77
-87.5266 -108.0124 2.4960 252 211 77
-87.4231 -107.7165 2.4960 252 211 77
-87.3880 -107.4050 2.4960 252 211 77
-87.4231 -107.4050 2.8075 252 211 77
-87.5266 -107.4050 3.1034 252 211 77
-87.6934 -107.4050 3.3689 252 211 77
-87.9151 -107.4050 3.5906 252 211 77
-88.1806 -107.4050 3.7574 252 211 77
-88.4765 -107.4050 3.8609 252 211 77
-88.7880 -107.4050 3.8960 252 211 77
-89.0995 -107.4050 3.8609 252 211 77
-89.3954 -107.4050 3.7574 252 211 77
-89.6609 -107.4050 3.5906 252 211 77
-89.8826 -107.4050 3.3689 252 211 77
-90.0494 -107.4050 3.1034 252 211 77
-90.1529 -107.4050 2.8075 252 211 77
-90.1880 -107.4050 2.4960 252 211 77
-90.1529 -107.4050 2.1845 252 211 77
-90.0494 -107.4050 1.8886 252 211 77
-89.8826 -107.4050 1.6231 252 211 77
-89.6609 -107.4050 1.4014 252 211 77
-89.3954 -107.4050 1.2346 252 211 77
-89.0995 -107.4050 1.1311 252 211 77
-88.7880 -107.4050 1.0960 252 211 77
-88.4765 -107.4050 1.1311 252 211 77
-88.1806 -107.4050 1.2346 252 211 77
-87.9151 -107.4050 1.4014 252 211 77
-87.6934 -107.4050 1.6231 252 211 77
-87.5266 -107.4050 1.8886 252 211 77
-87.4231 -107.4050 2.1845 252 211 77
-88.7880 -106.0050 2.4960 252 211 77
-88.7880 -106.0401 2.8075 252 211 77
-88.7880 -106.1436 3.1034 252 211 77
-88.7880 -106.3104 3.3689 252 211 77
-88.7880 -106.5321 3.5906 252 211 77
-88.7880 -106.7976 3.7574 252 211 77
-88.7880 -107.0935 3.8609 252 211 77
-88.7880 -107.4050 3.8960 252 211 77
-88.7880 -107.7165 3.8609 252 211 77
-88.7880 -108.0124 3.7574 252 211 77
-88.7880 -108.2779 3.5906 252 211 77
-88.7880 -108.4996 3.3689 252 211 77
-88.7880 -108.6664 3.1034 252 211 77
-88.7880 -108.7699 2.8075 252 211 77
-88.7880 -108.8050 2.4960 252 211 77
-88.7880 -108.7699 2.1845 252 211 77
-88.7880 -108.6664 1.8886 252 211 77
-88.7880 -108.4996 1.6231 252 211 77
-88.7880 -108.2779 1.4014 252 211 77
-88.7880 -108.0124 1.2346 252 211 77
-88.7880 -107.7165 1.1311 252 211 77
-88.7880 -107.4050 1.0960 252 211 77
-88.7880 -107.0935 1.1311 252 211 77
-88.7880 -106.7976 1.2346 252 211 77
-88.7880 -106.5321 1.4014 252 211 77
-88.7880 -106.3104 1.6231 252 211 77
-88.7880 -106.1436 1.8886 252 211 77
-88.7880 -106.0401 2.1845 252 211 77
-52.2320 -102.0190 3.5090 248 113 113
-52.2671 -101.7075 3.5090 248 113 113
-52.3706 -101.4116 3.5090 248 113 113
-52.5374 -101.1461 3.5090 248 113 113
-52.7591 -100.9244 3.5090 248 113 113
-53.0246 -100.7576 3.5090 248 113 113
-53.3205 -100.6541 3.5090 248 113 113
-53.6320 -100.6190 3.5090 248 113 113
-53.9435 -100.6541 3.5090 248 113 113
-54.2394 -100.7576 3.5090 248 113 113
-54.5049 -100.9244 3.5090 248 113 113
-54.7266 -101.1461 3.5090 248 113 113
-54.8934 -101.4116 3.5090 248 113 113
-54.9969 -101.7075 3.5090 248 113 113
-55.0320 -102.0190 3.5090 248 113 113
-54.9969 -102.3305 3.5090 248 113 113
-54.8934 -102.6264 3.5090 248 113 113
-54.7266 -102.8919 3.5090 248 113 113
-54.5049 -103.1136 3.5090 248 113 113
-54.2394 -103.2804 3.5090 248 113 113
-53.9435 -103.3839 3.5090 248 113 113
-53.6320 -103.4190 3.5090 248 113 113
-53.3205 -103.3839 3.5090 248 113 113
-53.0246 -103.2804 3.5090 248 113 113
-52.7591 -103.1136 3.5090 248 113 113
-52.5374 -102.8919 3.5090 248 113 113
-52.3706 -102.6264 3.5090 248 113 113
-52.2671 -102.3305 3.5090 248 113 113
-52.2320 -102.0190 3.5090 248 113 113
-52.2671 -102.0190 3.8205 248 113 113
-52.3706 -102.0190 4.1164 248 113 113
-52.5374 -102.0190 4.3819 248 113 113
-52.7591 -102.0190 4.6036 248 113 113
-53.0246 -102.0190 4.7704 248 113 113
-53.3205 -102.0190 4.8739 248 113 113
-53.6320 -102.0190 4.9090 248 113 113
-53.9435 -102.0190 4.8739 248 113 113
-54.2394 -102.0190 4.7704 248 113 113
-54.5049 -102.0190 4.6036 248 113 113
-54.7266 -102.0190 4.3819 248 113 113
-54.8934 -102.0190 4.1164 248 113 113
-54.9969 -102.0190 3.8205 248 113 113
-55.0320 -102.0190 3.5090 248 113 113
-54.9969 -102.0190 3.1975 248 113 113
-54.8934 -102.0190 2.9016 248 113 113
-54.7266 -102.0190 2.6361 248 113 113
-54.5049 -102.0190 2.4144 248 113 113
-54.2394 -102.0190 2.2476 248 113 113
-53.9435 -102.0190 2.1441 248 113 113
-53.6320 -102.0190 2.1090 248 113 113
-53.3205 -102.0190 2.1441 248 113 113
-53.0246 -102.0190 2.2476 248 113 113
-52.7591 -102.0190 2.4144 248 113 113
-52.5374 -102.0190 2.6361 248 113 113
-52.3706 -102.0190 2.9016 248 113 113
-52.2671 -102.0190 3.1975 248 113 113
-53.6320 -100.6190 3.5090 248 113 113
-53.6320 -100.6541 3.8205 248 113 113
-53.6320 -100.7576 4.1164 248 113 113
-53.6320 -100.9244 4.3819 248 113 113
-53.6320 -101.1461 4.6036 248 113 113
-53.6320 -101.4116 4.7704 248 113 113
-53.6320 -101.7075 4.8739 248 113 113
-53.6320 -102.0190 4.9090 248 113 113
-53.6320 -102.3305 4.8739 248 113 113
-53.6320 -102.6264 4.7704 248 113 113
-53.6320 -102.8919 4.6036 248 113 113
-53.6320 -103.1136 4.3819 248 113 113
-53.6320 -103.2804 4.1164 248 113 113
-53.6320 -103.3839 3.8205 248 113 113
-53.6320 -103.4190 3.5090 248 113 113
-53.6320 -103.3839 3.1975 248 113 113
-53.6320 -103.2804 2.9016 248 113 113
-53.6320 -103.1136 2.6361 248 113 113
-53.6320 -102.8919 2.4144 248 113 113
-53.6320 -102.6264 2.2476 248 113 113
-53.6320 -102.3305 2.1441 248 113 113
-53.6320 -102.0190 2.1090 248 113 113
-53.6320 -101.7075 2.1441 248 113 113
-53.6320 -101.4116 2.2476 248 113 113
-53.6320 -101.1461 2.4144 248 113 113
-53.6320 -100.9244 2.6361 248 113 113
-53.6320 -100.7576 2.9016 248 113 113
-53.6320 -100.6541 3.1975 248 113 113
-29.7460 -106.3760 3.2540 96 165 250
-29.7811 -106.0645 3.2540 96 165 250
-29.8846 -105.7686 3.2540 96 165 250
-30.0514 -105.5031 3.2540 96 165 250
-30.2731 -105.2814 3.2540 96 165 250
-30.5386 -105.1146 3.2540 96 165 250
-30.8345 -105.0111 3.2540 96 165 250
-31.1460 -104.9760 3.2540 96 165 250
-31.4575 -105.0111 3.2540 96 165 250
-31.7534 -105.1146 3.2540 96 165 250
-32.0189 -105.2814 3.2540 96 165 250
-32.2406 -105.5031 3.2540 96 165 250
-32.4074 -105.7686 3.2540 96 165 250
-32.5109 -106.0645 3.2540 96 165 250
-32.5460 -106.3760 3.2540 96 165 250
-32.5109 -106.6875 3.2540 96 165 250
-32.4074 -106.9834 3.2540 96 165 250
-32.2406 -107.2489 3.2540 96 165 250
-32.0189 -107.4706 3.2540 96 165 250
-31.7534 -107.6374 3.2540 96 165 250
-31.4575 -107.7409 3.2540 96 165 250
-31.1460 -107.7760 3.2540 96 165 250
-30.8345 -107.7409 3.2540 96 165 250
-30.5386 -107.6374 3.2540 96 165 250
-30.2731 -107.4706 3.2540 96 165 250
-30.0514 -107.2489 3.2540 96 165 250
-29.8846 -106.9834 3.2540 96 165 250
-29.7811 -106.6875 3.2540 96 165 250
-29.7460 -106.3760 3.2540 96 165 250
-29.7811 -106.3760 3.5655 96 165 250
-29.8846 -106.3760 3.8614 96 165 250
-30.0514 -106.3760 4.1269 96 165 250
-30.2731 -106.3760 4.3486 96 165 250
-30.5386 -106.3760 4.5154 96 165 250
-30.8345 -106.3760 4.6189 96 165 250
-31.1460 -106.3760 4.6540 96 165 250
-31.4575 -106.3760 4.6189 96 165 250
-31.7534 -106.3760 4.5154 96 165 250
-32.0189 -106.3760 4.3486 96 165 250
-32.2406 -106.3760 4.1269 96 165 250
-32.4074 -106.3760 3.8614 96 165 250
-32.5109 -106.3760 3.5655 96 165 250
-32.5460 -106.3760 3.2540 96 165 250
-32.5109 -106.3760 2.9425 96 165 250
-32.4074 -106.3760 2.6466 96 165 250
-32.2406 -106.3760 2.3811 96 165 250
-32.0189 -106.3760 2.1594 96 165 250
-31.7534 -106.3760 1.9926 96 165 250
-31.4575 -106.3760 1.8891 96 165 250
-31.1460 -106.3760 1.8540 96 165 250
-30.8345 -106.3760 1.8891 96 165 250
-30.5386 -106.3760 1.9926 96 165 250
-30.2731 -106.3760 2.1594 96 165 250
-30.0514 -106.3760 2.3811 96 165 250
-29.8846 -106.3760 2.6466 96 165 250
-29.7811 -106.3760 2.9425 96 165 250
-31.1460 -104.9760 3.2540 96 165 250
-31.1460 -105.0111 3.5655 96 165 250
-31.1460 -105.1146 3.8614 96 165 250
-31.1460 -105.2814 4.1269 96 165 250
-31.1460 -105.5031 4.3486 96 165 250
-31.1460 -105.7686 4.5154 96 165 250
-31.1460 -106.0645 4.6189 96 165 250
-31.1460 -106.3760 4.6540 96 165 250
-31.1460 -106.6875 4.6189 96 165 250
-31.1460 -106.9834 4.5154 96 165 250
-31.1460 -107.2489 4.3486 96 165 250
-31.1460 -107.4706 4.1269 96 165 250
-31.1460 -107.6374 3.8614 96 165 250
-31.1460 -107.7409 3.5655 96 165 250
-31.1460 -107.7760 3.2540 96 165 250
-31.1460 -107.7409 2.9425 96 165 250
-31.1460 -107.6374 2.6466 96 165 250
-31.1460 -107.4706 2.3811 96 165 250
-31.1460 -107.2489 2.1594 96 165 250
-31.1460 -106.9834 1.9926 96 165 250
-31.1460 -106.6875 1.8891 96 165 250
-31.1460 -106.3760 1.8540 96 165 250
-31.1460 -106.0645 1.8891 96 165 250
-31.1460 -105.7686 1.9926 96 165 250
-31.1460 -105.5031 2.1594 96 165 250
-31.1460 -105.2814 2.3811 96 165 250
-31.1460 -105.1146 2.6466 96 165 250
-31.1460 -105.0111 2.9425 96 165 250
0.3050 -109.7220 3.5320 74 222 128
0.2699 -109.4105 3.5320 74 222 128
0.1664 -109.1146 3.5320 74 222 128
-0.0004 -108.8491 3.5320 74 222 128
-0.2221 -108.6274 3.5320 74 222 128
-0.4876 -108.4606 3.5320 74 222 128
-0.7835 -108.3571 3.5320 74 222 128
-1.0950 -108.3220 3.5320 74 222 128
-1.4065 -108.3571 3.5320 74 222 128
-1.7024 -108.4606 3.5320 74 222 128
-1.9679 -108.6274 3.5320 74 222 128
-2.1896 -108.8491 3.5320 74 222 128
-2.3564 -109.1146 3.5320 74 222 128
-2.4599 -109.4105 3.5320 74 222 128
-2.4950 -109.7220 3.5320 74 222 128
-2.4599 -110.0335 3.5320 74 222 128
-2.3564 -110.3294 3.5320 74 222 128
-2.1896 -110.5949 3.5320 74 222 128
-1.9679 -110.8166 3.5320 74 222 128
-1.7024 -110.9834 3.5320 74 222 128
-1.4065 -111.0869 3.5320 74 222 128
-1.0950 -111.1220 3.5320 74 222 128
-0.7835 -111.0869 3.5320 74 222 128
-0.4876 -110.9834 3.5320 74 222 128
-0.2221 -110.8166 3.5320 74 222 128
-0.0004 -110.5949 3.5320 74 222 128
0.1664 -110.3294 3.5320 74 222 128
0.2699 -110.0335 3.5320 74 222 128
0.3050 -109.7220 3.5320 74 222 128
0.2699 -109.7220 3.8435 74 222 128
0.1664 -109.7220 4.1394 74 222 128
-0.0004 -109.7220 4.4049 74 222 128
-0.2221 -109.7220 4.6266 74 222 128
-0.4876 -109.7220 4.7934 74 222 128
-0.7835 -109.7220 4.8969 74 222 128
-1.0950 -109.7220 4.9320 74 222 128
-1.4065 -109.7220 4.8969 74 222 128
-1.7024 -109.7220 4.7934 74 222 128
-1.9679 -109.7220 4.6266 74 222 128
-2.1896 -109.7220 4.4049 74 222 128
-2.3564 -109.7220 4.1394 74 222 128
-2.4599 -109.7220 3.8435 74 222 128
-2.4950 -109.7220 3.5320 74 222 128
-2.4599 -109.7220 3.2205 74 222 128
-2.3564 -109.7220 2.9246 74 222 128
-2.1896 -109.7220 2.6591 74 222 128
-1.9679 -109.7220 2.4374 74 222 128
-1.7024 -109.7220 2.2706 74 222 128
-1.4065 -109.7220 2.1671 74 222 128
-1.0950 -109.7220 2.1320 74 222 128
-0.7835 -109.7220 2.1671 74 222 128
-0.4876 -109.7220 2.2706 74 222 128
-0.2221 -109.7220 2.4374 74 222 128
-0.0004 -109.7220 2.6591 74 222 128
0.1664 -109.7220 2.9246 74 222 128
0.2699 -109.7220 3.2205 74 222 128
-1.0950 -108.3220 3.5320 74 222 128
-1.0950 -108.3571 3.8435 74 222 128
-1.0950 -108.4606 4.1394 74 222 128
-1.0950 -108.6274 4.4049 74 222 128
-1.0950 -108.8491 4.6266 74 222 128
-1.0950 -109.1146 4.7934 74 222 128
-1.0950 -109.4105 4.8969 74 222 128
-1.0950 -109.7220 4.9320 74 222 128
-1.0950 -110.0335 4.8969 74 222 128
-1.0950 -110.3294 4.7934 74 222 128
-1.0950 -110.5949 4.6266 74 222 128
-1.0950 -110.8166 4.4049 74 222 128
-1.0950 -110.9834 4.1394 74 222 128
-1.0950 -111.0869 3.8435 74 222 128
-1.0950 -111.1220 3.5320 74 222 128
-1.0950 -111.0869 3.2205 74 222 128
-1.0950 -110.9834 2.9246 74 222 128
-1.0950 -110.8166 2.6591 74 222 128
-1.0950 -110.5949 2.4374 74 222 128
-1.0950 -110.3294 2.2706 74 222 128
-1.0950 -110.0335 2.1671 74 222 128
-1.0950 -109.7220 2.1320 74 222 128
-1.0950 -109.4105 2.1671 74 222 128
-1.0950 -109.1146 2.2706 74 222 128
-1.0950 -108.8491 2.4374 74 222 128
-1.0950 -108.6274 2.6591 74 222 128
-1.0950 -108.4606 2.9246 74 222 128
-1.0950 -108.3571 3.2205 74 222 128
31.9690 -103.1530 3.8510 216 180 254
31.9339 -102.8415 3.8510 216 180 254
31.8304 -102.5456 3.8510 216 180 254
31.6636 -102.2801 3.8510 216 180 254
31.4419 -102.0584 3.8510 216 180 254
31.1764 -101.8916 3.8510 216 180 254
30.8805 -101.7881 3.8510 216 180 254
30.5690 -101.7530 3.8510 216 180 254
30.2575 -101.7881 3.8510 216 180 254
29.9616 -101.8916 3.8510 216 180 254
29.6961 -102.0584 3.8510 216 180 254
29.4744 -102.2801 3.8510 216 180 254
29.3076 -102.5456 3.8510 216 180 254
29.2041 -102.8415 3.8510 216 180 254
29.1690 -103.1530 3.8510 216 180 254
29.2041 -103.4645 3.8510 216 180 254
29.3076 -103.7604 3.8510 216 180 254
29.4744 -104.0259 3.8510 216 180 254
29.6961 -104.2476 3.8510 216 180 254
29.9616 -104.4144 3.8510 216 180 254
30.2575 -104.5179 3.8510 216 180 254
30.5690 -104.5530 3.8510 216 180 254
30.8805 -104.5179 3.8510 216 180 254
31.1764 -104.4144 3.8510 216 180 254
31.4419 -104.2476 3.8510 216 180 254
31.6636 -104.0259 3.8510 216 180 254
31.8304 -103.7604 3.8510 216 180 254
31.9339 -103.4645 3.8510 216 180 254
31.9690 -103.1530 3.8510 216 180 254
31.9339 -103.1530 4.1625 216 180 254
31.8304 -103.1530 4.4584 216 180 254
31.6636 -103.1530 4.7239 216 180 254
31.4419 -103.1530 4.9456 216 180 254
31.1764 -103.1530 5.1124 216 180 254
30.8805 -103.1530 5.2159 216 180 254
30.5690 -103.1530 5.2510 216 180 254
30.2575 -103.1530 5.2159 216 180 254
29.9616 -103.1530 5.1124 216 180 254
29.6961 -103.1530 4.9456 216 180 254
29.4744 -103.1530 4.7239 216 180 254
29.3076 -103.1530 4.4584 216 180 254
29.2041 -103.1530 4.1625 216 180 254
29.1690 -103.1530 3.8510 216 180 254
29.2041 -103.1530 3.5395 216 180 254
29.3076 -103.1530 3.2436 216 180 254
29.4744 -103.1530 2.9781 216 180 254
29.6961 -103.1530 2.7564 216 180 254
29.9616 -103.1530 2.5896 216 180 254
30.2575 -103.1530 2.4861 216 180 254
30.5690 -103.1530 2.4510 216 180 254
30.8805 -103.1530 2.4861 216 180 254
31.1764 -103.1530 2.5896 216 180 254
31.4419 -103.1530 2.7564 216 180 254
31.6636 -103.1530 2.9781 216 180 254
31.8304 -103.1530 3.2436 216 180 254
31.9339 -103.1530 3.5395 216 180 254
30.5690 -101.7530 3.8510 216 180 254
30.5690 -101.7881 4.1625 216 180 254
30.5690 -101.8916 4.4584 216 180 254
30.5690 -102.0584 4.7239 216 180 254
30.5690 -102.2801 4.9456 216 180 254
30.5690 -102.5456 5.1124 216 180 254
30.5690 -102.8415 5.2159 216 180 254
30.5690 -103.1530 5.2510 216 180 254
30.5690 -103.4645 5.2159 216 180 254
30.5690 -103.7604 5.1124 216 180 254
30.5690 -104.0259 4.9456 216 180 254
30.5690 -104.2476 4.7239 216 180 254
30.5690 -104.4144 4.4584 216 180 254
30.5690 -104.5179 4.1625 216 180 254
30.5690 -104.5530 3.8510 216 180 254
30.5690 -104.5179 3.5395 216 180 254
30.5690 -104.4144 3.2436 216 180 254
30.5690 -104.2476 2.9781 216 180 254
30.5690 -104.0259 2.7564 216 180 254
30.5690 -103.7604 2.5896 216 180 254
30.5690 -103.4645 2.4861 216 180 254
30.5690 -103.1530 2.4510 216 180 254
30.5690 -102.8415 2.4861 216 180 254
30.5690 -102.5456 2.5896 216 180 254
30.5690 -102.2801 2.7564 216 180 254
30.5690 -102.0584 2.9781 216 180 254
30.5690 -101.8916 3.2436 216 180 254
30.5690 -101.7881 3.5395 216 180 254
90.6610 -100.3840 4.0060 96 165 250
90.6259 -100.0725 4.0060 96 165 250
90.5224 -99.7766 4.0060 96 165 250
90.3556 -99.5111 4.0060 96 165 250
90.1339 -99.2894 4.0060 96 165 250
89.8684 -99.1226 4.0060 96 165 250
89.5725 -99.0191 4.0060 96 165 250
89.2610 -98.9840 4.0060 96 165 250
88.9495 -99.0191 4.0060 96 165 250
88.6536 -99.1226 4.0060 96 165 250
88.3881 -99.2894 4.0060 96 165 250
88.1664 -99.5111 4.0060 96 165 250
87.9996 -99.7766 4.0060 96 165 250
87.8961 -100.0725 4.0060 96 165 250
87.8610 -100.3840 4.0060 96 165 250
87.8961 -100.6955 4.0060 96 165 250
87.9996 -100.9914 4.0060 96 165 250
88.1664 -101.2569 4.0060 96 165 250
88.3881 -101.4786 4.0060 96 165 250
88.6536 -101.6454 4.0060 96 165 250
88.9495 -101.7489 4.0060 96 165 250
89.2610 -101.7840 4.0060 96 165 250
89.5725 -101.7489 4.0060 96 165 250
89.8684 -101.6454 4.0060 96 165 250
90.1339 -101.4786 4.0060 96 165 250
90.3556 -101.2569 4.0060 96 165 250
90.5224 -100.9914 4.0060 96 165 250
90.6259 -100.6955 4.0060 96 165 250
90.6610 -100.3840 4.0060 96 165 250
90.6259 -100.3840 4.3175 96 165 250
90.5224 -100.3840 4.6134 96 165 250
90.3556 -100.3840 4.8789 96 165 250
90.1339 -100.3840 5.1006 96 165 250
89.8684 -100.3840 5.2674 96 165 250
89.5725 -100.3840 5.3709 96 165 250
89.2610 -100.3840 5.4060 96 165 250
88.9495 -100.3840 5.3709 96 165 250
88.6536 -100.3840 5.2674 96 165 250
88.3881 -100.3840 5.1006 96 165 250
88.1664 -100.3840 4.8789 96 165 250
87.9996 -100.3840 4.6134 96 165 250
87.8961 -100.3840 4.3175 96 165 250
87.8610 -100.3840 4.0060 96 165 250
87.8961 -100.3840 3.6945 96 165 250
87.9996 -100.3840 3.3986 96 165 250
88.1664 -100.3840 3.1331 96 165 250
88.3881 -100.3840 2.9114 96 165 250
88.6536 -100.3840 2.7446 96 165 250
88.9495 -100.3840 2.6411 96 165 250
89.2610 -100.3840 2.6060 96 165 250
89.5725 -100.3840 2.6411 96 165 250
89.8684 -100.3840 2.7446 96 165 250
90.1339 -100.3840 2.9114 96 165 250
90.3556 -100.3840 3.1331 96 165 250
90.5224 -100.3840 3.3986 96 165 250
90.6259 -100.3840 3.6945 96 165 250
89.2610 -98.9840 4.0060 96 165 250
89.2610 -99.0191 4.3175 96 165 250
89.2610 -99.1226 4.6134 96 165 250
89.2610 -99.2894 4.8789 96 165 250
89.2610 -99.5111 5.1006 96 165 250
89.2610 -99.7766 5.2674 96 165 250
89.2610 -100.0725 5.3709 96 165 250
89.2610 -100.3840 5.4060 96 165 250
89.2610 -100.6955 5.3709 96 165 250
89.2610 -100.9914 5.2674 96 165 250
89.2610 -101.2569 5.1006 96 165 250
89.2610 -101.4786 4.8789 96 165 250
89.2610 -101.6454 4.6134 96 165 250
89.2610 -101.7489 4.3175 96 165 250
89.2610 -101.7840 4.0060 96 165 250
89.2610 -101.7489 3.6945 96 165 250
89.2610 -101.6454 3.3986 96 165 250
89.2610 -101.4786 3.1331 96 165 250
89.2610 -101.2569 2.9114 96 165 250
89.2610 -100.9914 2.7446 96 165 250
89.2610 -100.6955 2.6411 96 165 250
89.2610 -100.3840 2.6060 96 165 250
89.2610 -100.0725 2.6411 96 165 250
89.2610 -99.7766 2.7446 96 165 250
89.2610 -99.5111 2.9114 96 165 250
89.2610 -99.2894 3.1331 96 165 250
89.2610 -99.1226 3.3986 96 165 250
89.2610 -99.0191 3.6945 96 165 250
158.5770 -116.4620 3.8370 248 113 113
158.5419 -116.1505 3.8370 248 113 113
158.4384 -115.8546 3.8370 248 113 113
158.2716 -115.5891 3.8370 248 113 113
158.0499 -115.3674 3.8370 248 113 113
157.7844 -115.2006 3.8370 248 113 113
157.4885 -115.0971 3.8370 248 113 113
157.1770 -115.0620 3.8370 248 113 113
156.8655 -115.0971 3.8370 248 113 113
156.5696 -115.2006 3.8370 248 113 113
156.3041 -115.3674 3.8370 248 113 113
156.0824 -115.5891 3.8370 248 113 113
155.9156 -115.8546 3.8370 248 113 113
155.8121 -116.1505 3.8370 248 113 113
155.7770 -116.4620 3.8370 248 113 113
155.8121 -116.7735 3.8370 248 113 113
155.9156 -117.0694 3.8370 248 113 113
156.0824 -117.3349 3.8370 248 113 113
156.3041 -117.5566 3.8370 248 113 113
156.5696 -117.7234 3.8370 248 113 113
156.8655 -117.8269 3.8370 248 113 113
157.1770 -117.8620 3.8370 248 113 113
157.4885 -117.8269 3.8370 248 113 113
157.7844 -117.7234 3.8370 248 113 113
158.0499 -117.5566 3.8370 248 113 113
158.2716 -117.3349 3.8370 248 113 113
158.4384 -117.0694 3.8370 248 113 113
158.5419 -116.7735 3.8370 248 113 113
158.5770 -116.4620 3.8370 248 113 113
158.5419 -116.4620 4.1485 248 113 113
158.4384 -116.4620 4.4444 248 113 113
158.2716 -116.4620 4.7099 248 113 113
158.0499 -116.4620 4.9316 248 113 113
157.7844 -116.4620 5.0984 248 113 113
157.4885 -116.4620 5.2019 248 113 113
157.1770 -116.4620 5.2370 248 113 113
156.8655 -116.4620 5.2019 248 113 113
156.5696 -116.4620 5.0984 248 113 113
156.3041 -116.4620 4.9316 248 113 113
156.0824 -116.4620 4.7099 248 113 113
155.9156 -116.4620 4.4444 248 113 113
155.8121 -116.4620 4.1485 248 113 113
155.7770 -116.4620 3.8370 248 113 113
155.8121 -116.4620 3.5255 248 113 113
155.9156 -116.4620 3.2296 248 113 113
156.0824 -116.4620 2.9641 248 113 113
156.3041 -116.4620 2.7424 248 113 113
156.5696 -116.4620 2.5756 248 113 113
156.8655 -116.4620 2.4721 248 113 113
157.1770 -116.4620 2.4370 248 113 113
157.4885 -116.4620 2.4721 248 113 113
157.7844 -116.4620 2.5756 248 113 113
158.0499 -116.4620 2.7424 248 113 113
158.2716 -116.4620 2.9641 248 113 113
158.4384 -116.4620 3.2296 248 113 113
158.5419 -116.4620 3.5255 248 113 113
157.1770 -115.0620 3.8370 248 113 113
157.1770 -115.0971 4.1485 248 113 113
157.1770 -115.2006 4.4444 248 113 113
157.1770 -115.3674 4.7099 248 113 113
157.1770 -115.5891 4.9316 248 113 113
157.1770 -115.8546 5.0984 248 113 113
157.1770 -116.1505 5.2019 248 113 113
157.1770 -116.4620 5.2370 248 113 113
157.1770 -116.7735 5.2019 248 113 113
157.1770 -117.0694 5.0984 248 113 113
157.1770 -117.3349 4.9316 248 113 113
157.1770 -117.5566 4.7099 248 113 113
157.1770 -117.7234 4.4444 248 113 113
157.1770 -117.8269 4.1485 248 113 113
157.1770 -117.8620 3.8370 248 113 113
157.1770 -117.8269 3.5255 248 113 113
157.1770 -117.7234 3.2296 248 113 113
157.1770 -117.5566 2.9641 248 113 113
157.1770 -117.3349 2.7424 248 113 113
157.1770 -117.0694 2.5756 248 113 113
157.1770 -116.7735 2.4721 248 113 113
157.1770 -116.4620 2.4370 248 113 113
157.1770 -116.1505 2.4721 248 113 113
157.1770 -115.8546 2.5756 248 113 113
157.1770 -115.5891 2.7424 248 113 113
157.1770 -115.3674 2.9641 248 113 113
157.1770 -115.2006 3.2296 248 113 113
157.1770 -115.0971 3.5255 248 113 113
232.9850 -112.2800 4.5030 252 211 77
232.9499 -111.9685 4.5030 252 211 77
232.8464 -111.6726 4.5030 252 211 77
232.6796 -111.4071 4.5030 252 211 77
232.4579 -111.1854 4.5030 252 211 77
232.1924 -111.0186 4.5030 252 211 77
231.8965 -110.9151 4.5030 252 211 77
231.5850 -110.8800 4.5030 252 211 77
231.2735 -110.9151 4.5030 252 211 77
230.9776 -111.0186 4.5030 252 211 77
230.7121 -111.1854 4.5030 252 211 77
230.4904 -111.4071 4.5030 252 211 77
230.3236 -111.6726 4.5030 252 211 77
230.2201 -111.9685 4.5030 252 211 77
230.1850 -112.2800 4.5030 252 211 77
230.2201 -112.5915 4.5030 252 211 77
230.3236 -112.8874 4.5030 252 211 77
230.4904 -113.1529 4.5030 252 211 77
230.7121 -113.3746 4.5030 252 211 77
230.9776 -113.5414 4.5030 252 211 77
231.2735 -113.6449 4.5030 252 211 77
231.5850 -113.6800 4.5030 252 211 77
231.8965 -113.6449 4.5030 252 211 77
232.1924 -113.5414 4.5030 252 211 77
232.4579 -113.3746 4.5030 252 211 77
232.6796 -113.1529 4.5030 252 211 77
232.8464 -112.8874 4.5030 252 211 77
232.9499 -112.5915 4.5030 252 211 77
232.9850 -112.2800 4.5030 252 211 77
232.9499 -112.2800 4.8145 252 211 77
232.8464 -112.2800 5.1104 252 211 77
232.6796 -112.2800 5.3759 252 211 77
232.4579 -112.2800 5.5976 252 211 77
232.1924 -112.2800 5.7644 252 211 77
231.8965 -112.2800 5.8679 252 211 77
231.5850 -112.2800 5.9030 252 211 77
231.2735 -112.2800 5.8679 252 211 77
230.9776 -112.2800 5.7644 252 211 77
230.7121 -112.2800 5.5976 252 211 77
230.4904 -112.2800 5.3759 252 211 77
230.3236 -112.2800 5.1104 252 211 77
230.2201 -112.2800 4.8145 252 211 77
230.1850 -112.2800 4.5030 252 211 77
230.2201 -112.2800 4.1915 252 211 77
230.3236 -112.2800 3.8956 252 211 77
230.4904 -112.2800 3.6301 252 211 77
230.7121 -112.2800 3.4084 252 211 77
230.9776 -112.2800 3.2416 252 211 77
231.2735 -112.2800 3.1381 252 211 77
231.5850 -112.2800 3.1030 252 211 77
231.8965 -112.2800 3.1381 252 211 77
232.1924 -112.2800 3.2416 252 211 77
232.4579 -112.2800 3.4084 252 211 77
232.6796 -112.2800 3.6301 252 211 77
232.8464 -112.2800 3.8956 252 211 77
232.9499 -112.2800 4.1915 252 211 77
231.5850 -110.8800 4.5030 252 211 77
231.5850 -110.9151 4.8145 252 211 77
231.5850 -111.0186 5.1104 252 211 77
231.5850 -111.1854 5.3759 252 211 77
231.5850 -111.4071 5.5976 252 211 77
231.5850 -111.6726 5.7644 252 211 77
231.5850 -111.9685 5.8679 252 211 77
231.5850 -112.2800 5.9030 252 211 77
231.5850 -112.5915 5.8679 252 211 77
231.5850 -112.8874 5.7644 252 211 77
231.5850 -113.1529 5.5976 252 211 77
231.5850 -113.3746 5.3759 252 211 77
231.5850 -113.5414 5.1104 252 211 77
231.5850 -113.6449 4.8145 252 211 77
231.5850 -113.6800 4.5030 252 211 77
231.5850 -113.6449 4.1915 252 211 77
231.5850 -113.5414 3.8956 252 211 77
231.5850 -113.3746 3.6301 252 211 77
231.5850 -113.1529 3.4084 252 211 77
231.5850 -112.8874 3.2416 252 211 77
231.5850 -112.5915 3.1381 252 211 77
231.5850 -112.2800 3.1030 252 211 77
231.5850 -111.9685 3.1381 252 211 77
231.5850 -111.6726 3.2416 252 211 77
231.5850 -111.4071 3.4084 252 211 77
231.5850 -111.1854 3.6301 252 211 77
231.5850 -111.0186 3.8956 252 211 77
231.5850 -110.9151 4.1915 252 211 77
35.7310 -121.3340 3.5400 248 113 113
35.6959 -121.0225 3.5400 248 113 113
35.5924 -120.7266 3.5400 248 113 113
35.4256 -120.4611 3.5400 248 113 113
35.2039 -120.2394 3.5400 248 113 113
34.9384 -120.0726 3.5400 248 113 113
34.6425 -119.9691 3.5400 248 113 113
34.3310 -119.9340 3.5400 248 113 113
34.0195 -119.9691 3.5400 248 113 113
33.7236 -120.0726 3.5400 248 113 113
33.4581 -120.2394 3.5400 248 113 113
33.2364 -120.4611 3.5400 248 113 113
33.0696 -120.7266 3.5400 248 113 113
32.9661 -121.0225 3.5400 248 113 113
32.9310 -121.3340 3.5400 248 113 113
32.9661 -121.6455 3.5400 248 113 113
33.0696 -121.9414 3.5400 248 113 113
33.2364 -122.2069 3.5400 248 113 113
33.4581 -122.4286 3.5400 248 113 113
33.7236 -122.5954 3.5400 248 113 113
34.0195 -122.6989 3.5400 248 113 113
34.3310 -122.7340 3.5400 248 113 113
34.6425 -122.6989 3.5400 248 113 113
34.9384 -122.5954 3.5400 248 113 113
35.2039 -122.4286 3.5400 248 113 113
35.4256 -122.2069 3.5400 248 113 113
35.5924 -121.9414 3.5400 248 113 113
35.6959 -121.6455 3.5400 248 113 113
35.7310 -121.3340 3.5400 248 113 113
35.6959 -121.3340 3.8515 248 113 113
35.5924 -121.3340 4.1474 248 113 113
35.4256 -121.3340 4.4129 248 113 113
35.2039 -121.3340 4.6346 248 113 113
34.9384 -121.3340 4.8014 248 113 113
34.6425 -121.3340 4.9049 248 113 113
34.3310 -121.3340 4.9400 248 113 113
34.0195 -121.3340 4.9049 248 113 113
33.7236 -121.3340 4.8014 248 113 113
33.4581 -121.3340 4.6346 248 113 113
33.2364 -121.3340 4.4129 248 113 113
33.0696 -121.3340 4.1474 248 113 113
32.9661 -121.3340 3.8515 248 113 113
32.9310 -121.3340 3.5400 248 113 113
32.9661 -121.3340 3.2285 248 113 113
33.0696 -121.3340 2.9326 248 113 113
33.2364 -121.3340 2.6671 248 113 113
33.4581 -121.3340 2.4454 248 113 113
33.7236 -121.3340 2.2786 248 113 113
34.0195 -121.3340 2.1751 248 113 113
34.3310 -121.3340 2.1400 248 113 113
34.6425 -121.3340 2.1751 248 113 113
34.9384 -121.3340 2.2786 248 113 113
35.2039 -121.3340 2.4454 248 113 113
35.4256 -121.3340 2.6671 248 113 113
35.5924 -121.3340 2.9326 248 113 113
35.6959 -121.3340 3.2285 248 113 113
34.3310 -119.9340 3.5400 248 113 113
34.3310 -119.9691 3.8515 248 113 113
34.3310 -120.0726 4.1474 248 113 113
34.3310 -120.2394 4.4129 248 113 113
34.3310 -120.4611 4.6346 248 113 113
34.3310 -120.7266 4.8014 248 113 113
34.3310 -121.0225 4.9049 248 113 113
34.3310 -121.3340 4.9400 248 113 113
34.3310 -121.6455 4.9049 248 113 113
34.3310 -121.9414 4.8014 248 113 113
34.3310 -122.2069 4.6346 248 113 113
34.3310 -122.4286 4.4129 248 113 113
34.3310 -122.5954 4.1474 248 113 113
34.3310 -122.6989 3.8515 248 113 113
34.3310 -122.7340 3.5400 248 113 113
34.3310 -122.6989 3.2285 248 113 113
34.3310 -122.5954 2.9326 248 113 113
34.3310 -122.4286 2.6671 248 113 113
34.3310 -122.2069 2.4454 248 113 113
34.3310 -121.9414 2.2786 248 113 113
34.3310 -121.6455 2.1751 248 113 113
34.3310 -121.3340 2.1400 248 113 113
34.3310 -121.0225 2.1751 248 113 113
34.3310 -120.7266 2.2786 248 113 113
34.3310 -120.4611 2.4454 248 113 113
34.3310 -120.2394 2.6671 248 113 113
34.3310 -120.0726 2.9326 248 113 113
34.3310 -119.9691 3.2285 248 113 113
-58.1640 -117.0550 2.4500 216 180 254
-58.1991 -116.7435 2.4500 216 180 254
-58.3026 -116.4476 2.4500 216 180 254
-58.4694 -116.1821 2.4500 216 180 254
-58.6911 -115.9604 2.4500 216 180 254
-58.9566 -115.7936 2.4500 216 180 254
-59.2525 -115.6901 2.4500 216 180 254
-59.5640 -115.6550 2.4500 216 180 254
-59.8755 -115.6901 2.4500 216 180 254
-60.1714 -115.7936 2.4500 216 180 254
-60.4369 -115.9604 2.4500 216 180 254
-60.6586 -116.1821 2.4500 216 180 254
-60.8254 -116.4476 2.4500 216 180 254
-60.9289 -116.7435 2.4500 216 180 254
-60.9640 -117.0550 2.4500 216 180 254
-60.9289 -117.3665 2.4500 216 180 254
-60.8254 -117.6624 2.4500 216 180 254
-60.6586 -117.9279 2.4500 216 180 254
-60.4369 -118.1496 2.4500 216 180 254
-60.1714 -118.3164 2.4500 216 180 254
-59.8755 -118.4199 2.4500 216 180 254
-59.5640 -118.4550 2.4500 216 180 254
-59.2525 -118.4199 2.4500 216 180 254
-58.9566 -118.3164 2.4500 216 180 254
-58.6911 -118.1496 2.4500 216 180 254
-58.4694 -117.9279 2.4500 216 180 254
-58.3026 -117.6624 2.4500 216 180 254
-58.1991 -117.3665 2.4500 216 180 254
-58.1640 -117.0550 2.4500 216 180 254
-58.1991 -117.0550 2.7615 216 180 254
-58.3026 -117.0550 3.0574 216 180 254
-58.4694 -117.0550 3.3229 216 180 254
-58.6911 -117.0550 3.5446 216 180 254
-58.9566 -117.0550 3.7114 216 180 254
-59.2525 -117.0550 3.8149 216 180 254
-59.5640 -117.0550 3.8500 216 180 254
-59.8755 -117.0550 3.8149 216 180 254
-60.1714 -117.0550 3.7114 216 180 254
-60.4369 -117.0550 3.5446 216 180 254
-60.6586 -117.0550 3.3229 216 180 254
-60.8254 -117.0550 3.0574 216 180 254
-60.9289 -117.0550 2.7615 216 180 254
-60.9640 -117.0550 2.4500 216 180 254
-60.9289 -117.0550 2.1385 216 180 254
-60.8254 -117.0550 1.8426 216 180 254
-60.6586 -117.0550 1.5771 216 180 254
-60.4369 -117.0550 1.3554 216 180 254
-60.1714 -117.0550 1.1886 216 180 254
-59.8755 -117.0550 1.0851 216 180 254
-59.5640 -117.0550 1.0500 216 180 254
-59.2525 -117.0550 1.0851 216 180 254
-58.9566 -117.0550 1.1886 216 180 254
-58.6911 -117.0550 1.3554 216 180 254
-58.4694 -117.0550 1.5771 216 180 254
-58.3026 -117.0550 1.8426 216 180 254
-58.1991 -117.0550 2.1385 216 180 254
-59.5640 -115.6550 2.4500 216 180 254
-59.5640 -115.6901 2.7615 216 180 254
-59.5640 -115.7936 3.0574 216 180 254
-59.5640 -115.9604 3.3229 216 180 254
-59.5640 -116.1821 3.5446 216 180 254
-59.5640 -116.4476 3.7114 216 180 254
-59.5640 -116.7435 3.8149 216 180 254
-59.5640 -117.0550 3.8500 216 180 254
-59.5640 -117.3665 3.8149 216 180 254
-59.5640 -117.6624 3.7114 216 180 254
-59.5640 -117.9279 3.5446 216 180 254
-59.5640 -118.1496 3.3229 216 180 254
-59.5640 -118.3164 3.0574 216 180 254
-59.5640 -118.4199 2.7615 216 180 254
-59.5640 -118.4550 2.4500 216 180 254
-59.5640 -118.4199 2.1385 216 180 254
-59.5640 -118.3164 1.8426 216 180 254
-59.5640 -118.1496 1.5771 216 180 254
-59.5640 -117.9279 1.3554 216 180 254
-59.5640 -117.6624 1.1886 216 180 254
-59.5640 -117.3665 1.0851 216 180 254
-59.5640 -117.0550 1.0500 216 180 254
-59.5640 -116.7435 1.0851 216 180 254
-59.5640 -116.4476 1.1886 216 180 254
-59.5640 -116.1821 1.3554 216 180 254
-59.5640 -115.9604 1.5771 216 180 254
-59.5640 -115.7936 1.8426 216 180 254
-59.5640 -115.6901 2.1385 216 180 254
109.5610 -60.8580 4.7900 96 165 250
109.5259 -60.5465 4.7900 96 165 250
109.4224 -60.2506 4.7900 96 165 250
109.2556 -59.9851 4.7900 96 165 250
109.0339 -59.7634 4.7900 96 165 250
108.7684 -59.5966 4.7900 96 165 250
108.4725 -59.4931 4.7900 96 165 250
108.1610 -59.4580 4.7900 96 165 250
107.8495 -59.4931 4.7900 96 165 250
107.5536 -59.5966 4.7900 96 165 250
107.2881 -59.7634 4.7900 96 165 250
107.0664 -59.9851 4.7900 96 165 250
106.8996 -60.2506 4.7900 96 165 250
106.7961 -60.5465 4.7900 96 165 250
106.7610 -60.8580 4.7900 96 165 250
106.7961 -61.1695 4.7900 96 165 250
106.8996 -61.4654 4.7900 96 165 250
107.0664 -61.7309 4.7900 96 165 250
107.2881 -61.9526 4.7900 96 165 250
107.5536 -62.1194 4.7900 96 165 250
107.8495 -62.2229 4.7900 96 165 250
108.1610 -62.2580 4.7900 96 165 250
108.4725 -62.2229 4.7900 96 165 250
108.7684 -62.1194 4.7900 96 165 250
109.0339 -61.9526 4.7900 96 165 250
109.2556 -61.7309 4.7900 96 165 250
109.4224 -61.4654 4.7900 96 165 250
109.5259 -61.1695 4.7900 96 165 250
109.5610 -60.8580 4.7900 96 165 250
109.5259 -60.8580 5.1015 96 165 250
109.4224 -60.8580 5.3974 96 165 250
109.2556 -60.8580 5.6629 96 165 250
109.0339 -60.8580 5.8846 96 165 250
108.7684 -60.8580 6.0514 96 165 250
108.4725 -60.8580 6.1549 96 165 250
108.1610 -60.8580 6.1900 96 165 250
107.8495 -60.8580 6.1549 96 165 250
107.5536 -60.8580 6.0514 96 165 250
107.2881 -60.8580 5.8846 96 165 250
107.0664 -60.8580 5.6629 96 165 250
106.8996 -60.8580 5.3974 96 165 250
106.7961 -60.8580 5.1015 96 165 250
106.7610 -60.8580 4.7900 96 165 250
106.7961 -60.8580 4.4785 96 165 250
106.8996 -60.8580 4.1826 96 165 250
107.0664 -60.8580 3.9171 96 165 250
107.2881 -60.8580 3.6954 96 165 250
107.5536 -60.8580 3.5286 96 165 250
107.8495 -60.8580 3.4251 96 165 250
108.1610 -60.8580 3.3900 96 165 250
108.4725 -60.8580 3.4251 96 165 250
108.7684 -60.8580 3.5286 96 165 250
109.0339 -60.8580 3.6954 96 165 250
109.2556 -60.8580 3.9171 96 165 250
109.4224 -60.8580 4.1826 96 165 250
109.5259 -60.8580 4.4785 96 165 250
108.1610 -59.4580 4.7900 96 165 250
108.1610 -59.4931 5.1015 96 165 250
108.1610 -59.5966 5.3974 96 165 250
108.1610 -59.7634 5.6629 96 165 250
108.1610 -59.9851 5.8846 96 165 250
108.1610 -60.2506 6.0514 96 165 250
108.1610 -60.5465 6.1549 96 165 250
108.1610 -60.8580 6.1900 96 165 250
108.1610 -61.1695 6.1549 96 165 250
108.1610 -61.4654 6.0514 96 165 250
108.1610 -61.7309 5.8846 96 165 250
108.1610 -61.9526 5.6629 96 165 250
108.1610 -62.1194 5.3974 96 165 250
108.1610 -62.2229 5.1015 96 165 250
108.1610 -62.2580 4.7900 96 165 250
108.1610 -62.2229 4.4785 96 165 250
108.1610 -62.1194 4.1826 96 165 250
108.1610 -61.9526 3.9171 96 165 250
108.1610 -61.7309 3.6954 96 165 250
108.1610 -61.4654 3.5286 96 165 250
108.1610 -61.1695 3.4251 96 165 250
108.1610 -60.8580 3.3900 96 165 250
108.1610 -60.5465 3.4251 96 165 250
108.1610 -60.2506 3.5286 96 165 250
108.1610 -59.9851 3.6954 96 165 250
108.1610 -59.7634 3.9171 96 165 250
108.1610 -59.5966 4.1826 96 165 250
108.1610 -59.4931 4.4785 96 165 250
94.5240 -37.6400 4.6690 74 222 128
94.4889 -37.3285 4.6690 74 222 128
94.3854 -37.0326 4.6690 74 222 128
94.2186 -36.7671 4.6690 74 222 128
93.9969 -36.5454 4.6690 74 222 128
93.7314 -36.3786 4.6690 74 222 128
93.4355 -36.2751 4.6690 74 222 128
93.1240 -36.2400 4.6690 74 222 128
92.8125 -36.2751 4.6690 74 222 128
92.5166 -36.3786 4.6690 74 222 128
92.2511 -36.5454 4.6690 74 222 128
92.0294 -36.7671 4.6690 74 222 128
91.8626 -37.0326 4.6690 74 222 128
91.7591 -37.3285 4.6690 74 222 128
91.7240 -37.6400 4.6690 74 222 128
91.7591 -37.9515 4.6690 74 222 128
91.8626 -38.2474 4.6690 74 222 128
92.0294 -38.5129 4.6690 74 222 128
92.2511 -38.7346 4.6690 74 222 128
92.5166 -38.9014 4.6690 74 222 128
92.8125 -39.0049 4.6690 74 222 128
93.1240 -39.0400 4.6690 74 222 128
93.4355 -39.0049 4.6690 74 222 128
93.7314 -38.9014 4.6690 74 222 128
93.9969 -38.7346 4.6690 74 222 128
94.2186 -38.5129 4.6690 74 222 128
94.3854 -38.2474 4.6690 74 222 128
94.4889 -37.9515 4.6690 74 222 128
94.5240 -37.6400 4.6690 74 222 128
94.4889 -37.6400 4.9805 74 222 128
94.3854 -37.6400 5.2764 74 222 128
94.2186 -37.6400 5.5419 74 222 128
93.9969 -37.6400 5.7636 74 222 128
93.7314 -37.6400 5.9304 74 222 128
93.4355 -37.6400 6.0339 74 222 128
93.1240 -37.6400 6.0690 74 222 128
92.8125 -37.6400 6.0339 74 222 128
92.5166 -37.6400 5.9304 74 222 128
92.2511 -37.6400 5.7636 74 222 128
92.0294 -37.6400 5.5419 74 222 128
91.8626 -37.6400 5.2764 74 222 128
91.7591 -37.6400 4.9805 74 222 128
91.7240 -37.6400 4.6690 74 222 128
91.7591 -37.6400 4.3575 74 222 128
91.8626 -37.6400 4.0616 74 222 128
92.0294 -37.6400 3.7961 74 222 128
92.2511 -37.6400 3.5744 74 222 128
92.5166 -37.6400 3.4076 74 222 128
92.8125 -37.6400 3.3041 74 222 128
93.1240 -37.6400 3.2690 74 222 128
93.4355 -37.6400 3.3041 74 222 128
93.7314 -37.6400 3.4076 74 222 128
93.9969 -37.6400 3.5744 74 222 128
94.2186 -37.6400 3.7961 74 222 128
94.3854 -37.6400 4.0616 74 222 128
94.4889 -37.6400 4.3575 74 222 128
93.1240 -36.2400 4.6690 74 222 128
93.1240 -36.2751 4.9805 74 222 128
93.1240 -36.3786 5.2764 74 222 128
93.1240 -36.5454 5.5419 74 222 128
93.1240 -36.7671 5.7636 74 222 128
93.1240 -37.0326 5.9304 74 222 128
93.1240 -37.3285 6.0339 74 222 128
93.1240 -37.6400 6.0690 74 222 128
93.1240 -37.9515 6.0339 74 222 128
93.1240 -38.2474 5.9304 74 222 128
93.1240 -38.5129 5.7636 74 222 128
93.1240 -38.7346 5.5419 74 222 128
93.1240 -38.9014 5.2764 74 222 128
93.1240 -39.0049 4.9805 74 222 128
93.1240 -39.0400 4.6690 74 222 128
93.1240 -39.0049 4.3575 74 222 128
93.1240 -38.9014 4.0616 74 222 128
93.1240 -38.7346 3.7961 74 222 128
93.1240 -38.5129 3.5744 74 222 128
93.1240 -38.2474 3.4076 74 222 128
93.1240 -37.9515 3.3041 74 222 128
93.1240 -37.6400 3.2690 74 222 128
93.1240 -37.3285 3.3041 74 222 128
93.1240 -37.0326 3.4076 74 222 128
93.1240 -36.7671 3.5744 74 222 128
93.1240 -36.5454 3.7961 74 222 128
93.1240 -36.3786 4.0616 74 222 128
93.1240 -36.2751 4.3575 74 222 128
69.4770 -37.4700 5.4600 216 180 254
69.4419 -37.1585 5.4600 216 180 254
69.3384 -36.8626 5.4600 216 180 254
69.1716 -36.5971 5.4600 216 180 254
68.9499 -36.3754 5.4600 216 180 254
68.6844 -36.2086 5.4600 216 180 254
68.3885 -36.1051 5.4600 216 180 254
68.0770 -36.0700 5.4600 216 180 254
67.7655 -36.1051 5.4600 216 180 254
67.4696 -36.2086 5.4600 216 180 254
67.2041 -36.3754 5.4600 216 180 254
66.9824 -36.5971 5.4600 216 180 254
66.8156 -36.8626 5.4600 216 180 254
66.7121 -37.1585 5.4600 216 180 254
66.6770 -37.4700 5.4600 216 180 254
66.7121 -37.7815 5.4600 216 180 254
66.8156 -38.0774 5.4600 216 180 254
66.9824 -38.3429 5.4600 216 180 254
67.2041 -38.5646 5.4600 216 180 254
67.4696 -38.7314 5.4600 216 180 254
67.7655 -38.8349 5.4600 216 180 254
68.0770 -38.8700 5.4600 216 180 254
68.3885 -38.8349 5.4600 216 180 254
68.6844 -38.7314 5.4600 216 180 254
68.9499 -38.5646 5.4600 216 180 254
69.1716 -38.3429 5.4600 216 180 254
69.3384 -38.0774 5.4600 216 180 254
69.4419 -37.7815 5.4600 216 180 254
69.4770 -37.4700 5.4600 216 180 254
69.4419 -37.4700 5.7715 216 180 254
69.3384 -37.4700 6.0674 216 180 254
69.1716 -37.4700 6.3329 216 180 254
68.9499 -37.4700 6.5546 216 180 254
68.6844 -37.4700 6.7214 216 180 254
68.3885 -37.4700 6.8249 216 180 254
68.0770 -37.4700 6.8600 216 180 254
67.7655 -37.4700 6.8249 216 180 254
67.4696 -37.4700 6.7214 216 180 254
67.2041 -37.4700 6.5546 216 180 254
66.9824 -37.4700 6.3329 216 180 254
66.8156 -37.4700 6.0674 216 180 254
66.7121 -37.4700 5.7715 216 180 254
66.6770 -37.4700 5.4600 216 180 254
66.7121 -37.4700 5.1485 216 180 254
66.8156 -37.4700 4.8526 216 180 254
66.9824 -37.4700 4.5871 216 180 254
67.2041 -37.4700 4.3654 216 180 254
67.4696 -37.4700 4.1986 216 180 254
67.7655 -37.4700 4.0951 216 180 254
68.0770 -37.4700 4.0600 216 180 254
68.3885 -37.4700 4.0951 216 180 254
68.6844 -37.4700 4.1986 216 180 254
68.9499 -37.4700 4.3654 216 180 254
69.1716 -37.4700 4.5871 216 180 254
69.3384 -37.4700 4.8526 216 180 254
69.4419 -37.4700 5.1485 216 180 254
68.0770 -36.0700 5.4600 216 180 254
68.0770 -36.1051 5.7715 216 180 254
68.0770 -36.2086 6.0674 216 180 254
68.0770 -36.3754 6.3329 216 180 254
68.0770 -36.5971 6.5546 216 180 254
68.0770 -36.8626 6.7214 216 180 254
68.0770 -37.1585 6.8249 216 180 254
68.0770 -37.4700 6.8600 216 180 254
68.0770 -37.7815 6.8249 216 180 254
68.0770 -38.0774 6.7214 216 180 254
68.0770 -38.3429 6.5546 216 180 254
68.0770 -38.5646 6.3329 216 180 254
68.0770 -38.7314 6.0674 216 180 254
68.0770 -38.8349 5.7715 216 180 254
68.0770 -38.8700 5.4600 216 180 254
68.0770 -38.8349 5.1485 216 180 254
68.0770 -38.7314 4.8526 216 180 254
68.0770 -38.5646 4.5871 216 180 254
68.0770 -38.3429 4.3654 216 180 254
68.0770 -38.0774 4.1986 216 180 254
68.0770 -37.7815 4.0951 216 180 254
68.0770 -37.4700 4.0600 216 180 254
68.0770 -37.1585 4.0951 216 180 254
68.0770 -36.8626 4.1986 216 180 254
68.0770 -36.5971 4.3654 216 180 254
68.0770 -36.3754 4.5871 216 180 254
68.0770 -36.2086 4.8526 216 180 254
68.0770 -36.1051 5.1485 216 180 254
69.5310 -12.2760 5.5520 248 113 113
69.4959 -11.9645 5.5520 248 113 113
69.3924 -11.6686 5.5520 248 113 113
69.2256 -11.4031 5.5520 248 113 113
69.0039 -11.1814 5.5520 248 113 113
68.7384 -11.0146 5.5520 248 113 113
68.4425 -10.9111 5.5520 248 113 113
68.1310 -10.8760 5.5520 248 113 113
67.8195 -10.9111 5.5520 248 113 113
67.5236 -11.0146 5.5520 248 113 113
67.2581 -11.1814 5.5520 248 113 113
67.0364 -11.4031 5.5520 248 113 113
66.8696 -11.6686 5.5520 248 113 113
66.7661 -11.9645 5.5520 248 113 113
66.7310 -12.2760 5.5520 248 113 113
66.7661 -12.5875 5.5520 248 113 113
66.8696 -12.8834 5.5520 248 113 113
67.0364 -13.1489 5.5520 248 113 113
67.2581 -13.3706 5.5520 248 113 113
67.5236 -13.5374 5.5520 248 113 113
67.8195 -13.6409 5.5520 248 113 113
68.1310 -13.6760 5.5520 248 113 113
68.4425 -13.6409 5.5520 248 113 113
68.7384 -13.5374 5.5520 248 113 113
69.0039 -13.3706 5.5520 248 113 113
69.2256 -13.1489 5.5520 248 113 113
69.3924 -12.8834 5.5520 248 113 113
69.4959 -12.5875 5.5520 248 113 113
69.5310 -12.2760 5.5520 248 113 113
69.4959 -12.2760 5.8635 248 113 113
69.3924 -12.2760 6.1594 248 113 113
69.2256 -12.2760 6.4249 248 113 113
69.0039 -12.2760 6.6466 248 113 113
68.7384 -12.2760 6.8134 248 113 113
68.4425 -12.2760 6.9169 248 113 113
68.1310 -12.2760 6.9520 248 113 113
67.8195 -12.2760 6.9169 248 113 113
67.5236 -12.2760 6.8134 248 113 113
67.2581 -12.2760 6.6466 248 113 113
67.0364 -12.2760 6.4249 248 113 113
66.8696 -12.2760 6.1594 248 113 113
66.7661 -12.2760 5.8635 248 113 113
66.7310 -12.2760 5.5520 248 113 113
66.7661 -12.2760 5.2405 248 113 113
66.8696 -12.2760 4.9446 248 113 113
67.0364 -12.2760 4.6791 248 113 113
67.2581 -12.2760 4.4574 248 113 113
67.5236 -12.2760 4.2906 248 113 113
67.8195 -12.2760 4.1871 248 113 113
68.1310 -12.2760 4.1520 248 113 113
68.4425 -12.2760 4.1871 248 113 113
68.7384 -12.2760 4.2906 248 113 113
69.0039 -12.2760 4.4574 248 113 113
69.2256 -12.2760 4.6791 248 113 113
69.3924 -12.2760 4.9446 248 113 113
69.4959 -12.2760 5.2405 248 113 113
68.1310 -10.8760 5.5520 248 113 113
68.1310 -10.9111 5.8635 248 113 113
68.1310 -11.0146 6.1594 248 113 113
68.1310 -11.1814 6.4249 248 113 113
68.1310 -11.4031 6.6466 248 113 113
68.1310 -11.6686 6.8134 248 113 113
68.1310 -11.9645 6.9169 248 113 113
68.1310 -12.2760 6.9520 248 113 113
68.1310 -12.5875 6.9169 248 113 113
68.1310 -12.8834 6.8134 248 113 113
68.1310 -13.1489 6.6466 248 113 113
68.1310 -13.3706 6.4249 248 113 113
68.1310 -13.5374 6.1594 248 113 113
68.1310 -13.6409 5.8635 248 113 113
68.1310 -13.6760 5.5520 248 113 113
68.1310 -13.6409 5.2405 248 113 113
68.1310 -13.5374 4.9446 248 113 113
68.1310 -13.3706 4.6791 248 113 113
68.1310 -13.1489 4.4574 248 113 113
68.1310 -12.8834 4.2906 248 113 113
68.1310 -12.5875 4.1871 248 113 113
68.1310 -12.2760 4.1520 248 113 113
68.1310 -11.9645 4.1871 248 113 113
68.1310 -11.6686 4.2906 248 113 113
68.1310 -11.4031 4.4574 248 113 113
68.1310 -11.1814 4.6791 248 113 113
68.1310 -11.0146 4.9446 248 113 113
68.1310 -10.9111 5.2405 248 113 113
111.3140 -11.9210 5.5800 216 180 254
111.2789 -11.6095 5.5800 216 180 254
111.1754 -11.3136 5.5800 216 180 254
111.0086 -11.0481 5.5800 216 180 254
110.7869 -10.8264 5.5800 216 180 254
110.5214 -10.6596 5.5800 216 180 254
110.2255 -10.5561 5.5800 216 180 254
109.9140 -10.5210 5.5800 216 180 254
109.6025 -10.5561 5.5800 216 180 254
109.3066 -10.6596 5.5800 216 180 254
109.0411 -10.8264 5.5800 216 180 254
108.8194 -11.0481 5.5800 216 180 254
108.6526 -11.3136 5.5800 216 180 254
108.5491 -11.6095 5.5800 216 180 254
108.5140 -11.9210 5.5800 216 180 254
108.5491 -12.2325 5.5800 216 180 254
108.6526 -12.5284 5.5800 216 180 254
108.8194 -12.7939 5.5800 216 180 254
109.0411 -13.0156 5.5800 216 180 254
109.3066 -13.1824 5.5800 216 180 254
109.6025 -13.2859 5.5800 216 180 254
109.9140 -13.3210 5.5800 216 180 254
110.2255 -13.2859 5.5800 216 180 254
110.5214 -13.1824 5.5800 216 180 254
110.7869 -13.0156 5.5800 216 180 254
111.0086 -12.7939 5.5800 216 180 254
111.1754 -12.5284 5.5800 216 180 254
111.2789 -12.2325 5.5800 216 180 254
111.3140 -11.9210 5.5800 216 180 254
111.2789 -11.9210 5.8915 216 180 254
111.1754 -11.9210 6.1874 216 180 254
111.0086 -11.9210 6.4529 216 180 254
110.7869 -11.9210 6.6746 216 180 254
110.5214 -11.9210 6.8414 216 180 254
110.2255 -11.9210 6.9449 216 180 254
109.9140 -11.9210 6.9800 216 180 254
109.6025 -11.9210 6.9449 216 180 254
109.3066 -11.9210 6.8414 216 180 254
109.0411 -11.9210 6.6746 216 180 254
108.8194 -11.9210 6.4529 216 180 254
108.6526 -11.9210 6.1874 216 180 254
108.5491 -11.9210 5.8915 216 180 254
108.5140 -11.9210 5.5800 216 180 254
108.5491 -11.9210 5.2685 216 180 254
108.6526 -11.9210 4.9726 216 180 254
108.8194 -11.9210 4.7071 216 180 254
109.0411 -11.9210 4.4854 216 180 254
109.3066 -11.9210 4.3186 216 180 254
109.6025 -11.9210 4.2151 216 180 254
109.9140 -11.9210 4.1800 216 180 254
110.2255 -11.9210 4.2151 216 180 254
110.5214 -11.9210 4.3186 216 180 254
110.7869 -11.9210 4.4854 216 180 254
111.0086 -11.9210 4.7071 216 180 254
111.1754 -11.9210 4.9726 216 180 254
111.2789 -11.9210 5.2685 216 180 254
109.9140 -10.5210 5.5800 216 180 254
109.9140 -10.5561 5.8915 216 180 254
109.9140 -10.6596 6.1874 216 180 254
109.9140 -10.8264 6.4529 216 180 254
109.9140 -11.0481 6.6746 216 180 254
109.9140 -11.3136 6.8414 216 180 254
109.9140 -11.6095 6.9449 216 180 254
109.9140 -11.9210 6.9800 216 180 254
109.9140 -12.2325 6.9449 216 180 254
109.9140 -12.5284 6.8414 216 180 254
109.9140 -12.7939 6.6746 216 180 254
109.9140 -13.0156 6.4529 216 180 254
109.9140 -13.1824 6.1874 216 180 254
109.9140 -13.2859 5.8915 216 180 254
109.9140 -13.3210 5.5800 216 180 254
109.9140 -13.2859 5.2685 216 180 254
109.9140 -13.1824 4.9726 216 180 254
109.9140 -13.0156 4.7071 216 180 254
109.9140 -12.7939 4.4854 216 180 254
109.9140 -12.5284 4.3186 216 180 254
109.9140 -12.2325 4.2151 216 180 254
109.9140 -11.9210 4.1800 216 180 254
109.9140 -11.6095 4.2151 216 180 254
109.9140 -11.3136 4.3186 216 180 254
109.9140 -11.0481 4.4854 216 180 254
109.9140 -10.8264 4.7071 216 180 254
109.9140 -10.6596 4.9726 216 180 254
109.9140 -10.5561 5.2685 216 180 254
114.4130 13.0590 5.5480 252 211 77
114.3779 13.3705 5.5480 252 211 77
114.2744 13.6664 5.5480 252 211 77
114.1076 13.9319 5.5480 252 211 77
113.8859 14.1536 5.5480 252 211 77
113.6204 14.3204 5.5480 252 211 77
113.3245 14.4239 5.5480 252 211 77
113.0130 14.4590 5.5480 252 211 77
112.7015 14.4239 5.5480 252 211 77
112.4056 14.3204 5.5480 252 211 77
112.1401 14.1536 5.5480 252 211 77
111.9184 13.9319 5.5480 252 211 77
111.7516 13.6664 5.5480 252 211 77
111.6481 13.3705 5.5480 252 211 77
111.6130 13.0590 5.5480 252 211 77
111.6481 12.7475 5.5480 252 211 77
111.7516 12.4516 5.5480 252 211 77
111.9184 12.1861 5.5480 252 211 77
112.1401 11.9644 5.5480 252 211 77
112.4056 11.7976 5.5480 252 211 77
112.7015 11.6941 5.5480 252 211 77
113.0130 11.6590 5.5480 252 211 77
113.3245 11.6941 5.5480 252 211 77
113.6204 11.7976 5.5480 252 211 77
113.8859 11.9644 5.5480 252 211 77
114.1076 12.1861 5.5480 252 211 77
114.2744 12.4516 5.5480 252 211 77
114.3779 12.7475 5.5480 252 211 77
114.4130 13.0590 5.5480 252 211 77
114.3779 13.0590 5.8595 252 211 77
114.2744 13.0590 6.1554 252 211 77
114.1076 13.0590 6.4209 252 211 77
113.8859 13.0590 6.6426 252 211 77
113.6204 13.0590 6.8094 252 211 77
113.3245 13.0590 6.9129 252 211 77
113.0130 13.0590 6.9480 252 211 77
112.7015 13.0590 6.9129 252 211 77
112.4056 13.0590 6.8094 252 211 77
112.1401 13.0590 6.6426 252 211 77
111.9184 13.0590 6.4209 252 211 77
111.7516 13.0590 6.1554 252 211 77
111.6481 13.0590 5.8595 252 211 77
111.6130 13.0590 5.5480 252 211 77
111.6481 13.0590 5.2365 252 211 77
111.7516 13.0590 4.9406 252 211 77
111.9184 13.0590 4.6751 252 211 77
112.1401 13.0590 4.4534 252 211 77
112.4056 13.0590 4.2866 252 211 77
112.7015 13.0590 4.1831 252 211 77
113.0130 13.0590 4.1480 252 211 77
113.3245 13.0590 4.1831 252 211 77
113.6204 13.0590 4.2866 252 211 77
113.8859 13.0590 4.4534 252 211 77
114.1076 13.0590 4.6751 252 211 77
114.2744 13.0590 4.9406 252 211 77
114.3779 13.0590 5.2365 252 211 77
113.0130 14.4590 5.5480 252 211 77
113.0130 14.4239 5.8595 252 211 77
113.0130 14.3204 6.1554 252 211 77
113.0130 14.1536 6.4209 252 211 77
113.0130 13.9319 6.6426 252 211 77
113.0130 13.6664 6.8094 252 211 77
113.0130 13.3705 6.9129 252 211 77
113.0130 13.0590 6.9480 252 211 77
113.0130 12.7475 6.9129 252 211 77
113.0130 12.4516 6.8094 252 211 77
113.0130 12.1861 6.6426 252 211 77
113.0130 11.9644 6.4209 252 211 77
113.0130 11.7976 6.1554 252 211 77
113.0130 11.6941 5.8595 252 211 77
113.0130 11.6590 5.5480 252 211 77
113.0130 11.6941 5.2365 252 211 77
113.0130 11.7976 4.9406 252 211 77
113.0130 11.9644 4.6751 252 211 77
113.0130 12.1861 4.4534 252 211 77
113.0130 12.4516 4.2866 252 211 77
113.0130 12.7475 4.1831 252 211 77
113.0130 13.0590 4.1480 252 211 77
113.0130 13.3705 4.1831 252 211 77
113.0130 13.6664 4.2866 252 211 77
113.0130 13.9319 4.4534 252 211 77
113.0130 14.1536 4.6751 252 211 77
113.0130 14.3204 4.9406 252 211 77
113.0130 14.4239 5.2365 252 211 77
73.7340 1.4810 5.2160 74 222 128
73.6989 1.7925 5.2160 74 222 128
73.5954 2.0884 5.2160 74 222 128
73.4286 2.3539 5.2160 74 222 128
73.2069 2.5756 5.2160 74 222 128
72.9414 2.7424 5.2160 74 222 128
72.6455 2.8459 5.2160 74 222 128
72.3340 2.8810 5.2160 74 222 128
72.0225 2.8459 5.2160 74 222 128
71.7266 2.7424 5.2160 74 222 128
71.4611 2.5756 5.2160 74 222 128
71.2394 2.3539 5.2160 74 222 128
71.0726 2.0884 5.2160 74 222 128
70.9691 1.7925 5.2160 74 222 128
70.9340 1.4810 5.2160 74 222 128
70.9691 1.1695 5.2160 74 222 128
71.0726 0.8736 5.2160 74 222 128
71.2394 0.6081 5.2160 74 222 128
71.4611 0.3864 5.2160 74 222 128
71.7266 0.2196 5.2160 74 222 128
72.0225 0.1161 5.2160 74 222 128
72.3340 0.0810 5.2160 74 222 128
72.6455 0.1161 5.2160 74 222 128
72.9414 0.2196 5.2160 74 222 128
73.2069 0.3864 5.2160 74 222 128
73.4286 0.6081 5.2160 74 222 128
73.5954 0.8736 5.2160 74 222 128
73.6989 1.1695 5.2160 74 222 128
73.7340 1.4810 5.2160 74 222 128
73.6989 1.4810 5.5275 74 222 128
73.5954 1.4810 5.8234 74 222 128
73.4286 1.4810 6.0889 74 222 128
73.2069 1.4810 6.3106 74 222 128
72.9414 1.4810 6.4774 74 222 128
72.6455 1.4810 6.5809 74 222 128
72.3340 1.4810 6.6160 74 222 128
72.0225 1.4810 6.5809 74 222 128
71.7266 1.4810 6.4774 74 222 128
71.4611 1.4810 6.3106 74 222 128
71.2394 1.4810 6.0889 74 222 128
71.0726 1.4810 5.8234 74 222 128
70.9691 1.4810 5.5275 74 222 128
70.9340 1.4810 5.2160 74 222 128
70.9691 1.4810 4.9045 74 222 128
71.0726 1.4810 4.6086 74 222 128
71.2394 1.4810 4.3431 74 222 128
71.4611 1.4810 4.1214 74 222 128
71.7266 1.4810 3.9546 74 222 128
72.0225 1.4810 3.8511 74 222 128
72.3340 1.4810 3.8160 74 222 128
72.6455 1.4810 3.8511 74 222 128
72.9414 1.4810 3.9546 74 222 128
73.2069 1.4810 4.1214 74 222 128
73.4286 1.4810 4.3431 74 222 128
73.5954 1.4810 4.6086 74 222 128
73.6989 1.4810 4.9045 74 222 128
72.3340 2.8810 5.2160 74 222 128
72.3340 2.8459 5.5275 74 222 128
72.3340 2.7424 5.8234 74 222 128
72.3340 2.5756 6.0889 74 222 128
72.3340 2.3539 6.3106 74 222 128
72.3340 2.0884 6.4774 74 222 128
72.3340 1.7925 6.5809 74 222 128
72.3340 1.4810 6.6160 74 222 128
72.3340 1.1695 6.5809 74 222 128
72.3340 0.8736 6.4774 74 222 128
72.3340 0.6081 6.3106 74 222 128
72.3340 0.3864 6.0889 74 222 128
72.3340 0.2196 5.8234 74 222 128
72.3340 0.1161 5.5275 74 222 128
72.3340 0.0810 5.2160 74 222 128
72.3340 0.1161 4.9045 74 222 128
72.3340 0.2196 4.6086 74 222 128
72.3340 0.3864 4.3431 74 222 128
72.3340 0.6081 4.1214 74 222 128
72.3340 0.8736 3.9546 74 222 128
72.3340 1.1695 3.8511 74 222 128
72.3340 1.4810 3.8160 74 222 128
72.3340 1.7925 3.8511 74 222 128
72.3340 2.0884 3.9546 74 222 128
72.3340 2.3539 4.1214 74 222 128
72.3340 2.5756 4.3431 74 222 128
72.3340 2.7424 4.6086 74 222 128
72.3340 2.8459 4.9045 74 222 128
34.7270 12.7350 5.0570 252 211 77
34.6919 13.0465 5.0570 252 211 77
34.5884 13.3424 5.0570 252 211 77
34.4216 13.6079 5.0570 252 211 77
34.1999 13.8296 5.0570 252 211 77
33.9344 13.9964 5.0570 252 211 77
33.6385 14.0999 5.0570 252 211 77
33.3270 14.1350 5.0570 252 211 77
33.0155 14.0999 5.0570 252 211 77
32.7196 13.9964 5.0570 252 211 77
32.4541 13.8296 5.0570 252 211 77
32.2324 13.6079 5.0570 252 211 77
32.0656 13.3424 5.0570 252 211 77
31.9621 13.0465 5.0570 252 211 77
31.9270 12.7350 5.0570 252 211 77
31.9621 12.4235 5.0570 252 211 77
32.0656 12.1276 5.0570 252 211 77
32.2324 11.8621 5.0570 252 211 77
32.4541 11.6404 5.0570 252 211 77
32.7196 11.4736 5.0570 252 211 77
33.0155 11.3701 5.0570 252 211 77
33.3270 11.3350 5.0570 252 211 77
33.6385 11.3701 5.0570 252 211 77
33.9344 11.4736 5.0570 252 211 77
34.1999 11.6404 5.0570 252 211 77
34.4216 11.8621 5.0570 252 211 77
34.5884 12.1276 5.0570 252 211 77
34.6919 12.4235 5.0570 252 211 77
34.7270 12.7350 5.0570 252 211 77
34.6919 12.7350 5.3685 252 211 77
34.5884 12.7350 5.6644 252 211 77
34.4216 12.7350 5.9299 252 211 77
34.1999 12.7350 6.1516 252 211 77
33.9344 12.7350 6.3184 252 211 77
33.6385 12.7350 6.4219 252 211 77
33.3270 12.7350 6.4570 252 211 77
33.0155 12.7350 6.4219 252 211 77
32.7196 12.7350 6.3184 252 211 77
32.4541 12.7350 6.1516 252 211 77
32.2324 12.7350 5.9299 252 211 77
32.0656 12.7350 5.6644 252 211 77
31.9621 12.7350 5.3685 252 211 77
31.9270 12.7350 5.0570 252 211 77
31.9621 12.7350 4.7455 252 211 77
32.0656 12.7350 4.4496 252 211 77
32.2324 12.7350 4.1841 252 211 77
32.4541 12.7350 3.9624 252 211 77
32.7196 12.7350 3.7956 252 211 77
33.0155 12.7350 3.6921 252 211 77
33.3270 12.7350 3.6570 252 211 77
33.6385 12.7350 3.6921 252 211 77
33.9344 12.7350 3.7956 252 211 77
34.1999 12.7350 3.9624 252 211 77
34.4216 12.7350 4.1841 252 211 77
34.5884 12.7350 4.4496 252 211 77
34.6919 12.7350 4.7455 252 211 77
33.3270 14.1350 5.0570 252 211 77
33.3270 14.0999 5.3685 252 211 77
33.3270 13.9964 5.6644 252 211 77
33.3270 13.8296 5.9299 252 211 77
33.3270 13.6079 6.1516 252 211 77
33.3270 13.3424 6.3184 252 211 77
33.3270 13.0465 6.4219 252 211 77
33.3270 12.7350 6.4570 252 211 77
33.3270 12.4235 6.4219 252 211 77
33.3270 12.1276 6.3184 252 211 77
33.3270 11.8621 6.1516 252 211 77
33.3270 11.6404 5.9299 252 211 77
33.3270 11.4736 5.6644 252 211 77
33.3270 11.3701 5.3685 252 211 77
33.3270 11.3350 5.0570 252 211 77
33.3270 11.3701 4.7455 252 211 77
33.3270 11.4736 4.4496 252 211 77
33.3270 11.6404 4.1841 252 211 77
33.3270 11.8621 3.9624 252 211 77
33.3270 12.1276 3.7956 252 211 77
33.3270 12.4235 3.6921 252 211 77
33.3270 12.7350 3.6570 252 211 77
33.3270 13.0465 3.6921 252 211 77
33.3270 13.3424 3.7956 252 211 77
33.3270 13.6079 3.9624 252 211 77
33.3270 13.8296 4.1841 252 211 77
33.3270 13.9964 4.4496 252 211 77
33.3270 14.0999 4.7455 252 211 77
51.9410 -30.0700 5.1450 96 165 250
51.9059 -29.7585 5.1450 96 165 250
51.8024 -29.4626 5.1450 96 165 250
51.6356 -29.1971 5.1450 96 165 250
51.4139 -28.9754 5.1450 96 165 250
51.1484 -28.8086 5.1450 96 165 250
50.8525 -28.7051 5.1450 96 165 250
50.5410 -28.6700 5.1450 96 165 250
50.2295 -28.7051 5.1450 96 165 250
49.9336 -28.8086 5.1450 96 165 250
49.6681 -28.9754 5.1450 96 165 250
49.4464 -29.1971 5.1450 96 165 250
49.2796 -29.4626 5.1450 96 165 250
49.1761 -29.7585 5.1450 96 165 250
49.1410 -30.0700 5.1450 96 165 250
49.1761 -30.3815 5.1450 96 165 250
49.2796 -30.6774 5.1450 96 165 250
49.4464 -30.9429 5.1450 96 165 250
49.6681 -31.1646 5.1450 96 165 250
49.9336 -31.3314 5.1450 96 165 250
50.2295 -31.4349 5.1450 96 165 250
50.5410 -31.4700 5.1450 96 165 250
50.8525 -31.4349 5.1450 96 165 250
51.1484 -31.3314 5.1450 96 165 250
51.4139 -31.1646 5.1450 96 165 250
51.6356 -30.9429 5.1450 96 165 250
51.8024 -30.6774 5.1450 96 165 250
51.9059 -30.3815 5.1450 96 165 250
51.9410 -30.0700 5.1450 96 165 250
51.9059 -30.0700 5.4565 96 165 250
51.8024 -30.0700 5.7524 96 165 250
51.6356 -30.0700 6.0179 96 165 250
51.4139 -30.0700 6.2396 96 165 250
51.1484 -30.0700 6.4064 96 165 250
50.8525 -30.0700 6.5099 96 165 250
50.5410 -30.0700 6.5450 96 165 250
50.2295 -30.0700 6.5099 96 165 250
49.9336 -30.0700 6.4064 96 165 250
49.6681 -30.0700 6.2396 96 165 250
49.4464 -30.0700 6.0179 96 165 250
49.2796 -30.0700 5.7524 96 165 250
49.1761 -30.0700 5.4565 96 165 250
49.1410 -30.0700 5.1450 96 165 250
49.1761 -30.0700 4.8335 96 165 250
49.2796 -30.0700 4.5376 96 165 250
49.4464 -30.0700 4.2721 96 165 250
49.6681 -30.0700 4.0504 96 165 250
49.9336 -30.0700 3.8836 96 165 250
50.2295 -30.0700 3.7801 96 165 250
50.5410 -30.0700 3.7450 96 165 250
50.8525 -30.0700 3.7801 96 165 250
51.1484 -30.0700 3.8836 96 165 250
51.4139 -30.0700 4.0504 96 165 250
51.6356 -30.0700 4.2721 96 165 250
51.8024 -30.0700 4.5376 96 165 250
51.9059 -30.0700 4.8335 96 165 250
50.5410 -28.6700 5.1450 96 165 250
50.5410 -28.7051 5.4565 96 165 250
50.5410 -28.8086 5.7524 96 165 250
50.5410 -28.9754 6.0179 96 165 250
50.5410 -29.1971 6.2396 96 165 250
50.5410 -29.4626 6.4064 96 165 250
50.5410 -29.7585 6.5099 96 165 250
50.5410 -30.0700 6.5450 96 165 250
50.5410 -30.3815 6.5099 96 165 250
50.5410 -30.6774 6.4064 96 165 250
50.5410 -30.9429 6.2396 96 165 250
50.5410 -31.1646 6.0179 96 165 250
50.5410 -31.3314 5.7524 96 165 250
50.5410 -31.4349 5.4565 96 165 250
50.5410 -31.4700 5.1450 96 165 250
50.5410 -31.4349 4.8335 96 165 250
50.5410 -31.3314 4.5376 96 165 250
50.5410 -31.1646 4.2721 96 165 250
50.5410 -30.9429 4.0504 96 165 250
50.5410 -30.6774 3.8836 96 165 250
50.5410 -30.3815 3.7801 96 165 250
50.5410 -30.0700 3.7450 96 165 250
50.5410 -29.7585 3.7801 96 165 250
50.5410 -29.4626 3.8836 96 165 250
50.5410 -29.1971 4.0504 96 165 250
50.5410 -28.9754 4.2721 96 165 250
50.5410 -28.8086 4.5376 96 165 250
50.5410 -28.7051 4.8335 96 165 250
35.4010 -56.2390 4.8510 252 211 77
35.3659 -55.9275 4.8510 252 211 77
35.2624 -55.6316 4.8510 252 211 77
35.0956 -55.3661 4.8510 252 211 77
34.8739 -55.1444 4.8510 252 211 77
34.6084 -54.9776 4.8510 252 211 77
34.3125 -54.8741 4.8510 252 211 77
34.0010 -54.8390 4.8510 252 211 77
33.6895 -54.8741 4.8510 252 211 77
33.3936 -54.9776 4.8510 252 211 77
33.1281 -55.1444 4.8510 252 211 77
32.9064 -55.3661 4.8510 252 211 77
32.7396 -55.6316 4.8510 252 211 77
32.6361 -55.9275 4.8510 252 211 77
32.6010 -56.2390 4.8510 252 211 77
32.6361 -56.5505 4.8510 252 211 77
32.7396 -56.8464 4.8510 252 211 77
32.9064 -57.1119 4.8510 252 211 77
33.1281 -57.3336 4.8510 252 211 77
33.3936 -57.5004 4.8510 252 211 77
33.6895 -57.6039 4.8510 252 211 77
34.0010 -57.6390 4.8510 252 211 77
34.3125 -57.6039 4.8510 252 211 77
34.6084 -57.5004 4.8510 252 211 77
34.8739 -57.3336 4.8510 252 211 77
35.0956 -57.1119 4.8510 252 211 77
35.2624 -56.8464 4.8510 252 211 77
35.3659 -56.5505 4.8510 252 211 77
35.4010 -56.2390 4.8510 252 211 77
35.3659 -56.2390 5.1625 252 211 77
35.2624 -56.2390 5.4584 252 211 77
35.0956 -56.2390 5.7239 252 211 77
34.8739 -56.2390 5.9456 252 211 77
34.6084 -56.2390 6.1124 252 211 77
34.3125 -56.2390 6.2159 252 211 77
34.0010 -56.2390 6.2510 252 211 77
33.6895 -56.2390 6.2159 252 211 77
33.3936 -56.2390 6.1124 252 211 77
33.1281 -56.2390 5.9456 252 211 77
32.9064 -56.2390 5.7239 252 211 77
32.7396 -56.2390 5.4584 252 211 77
32.6361 -56.2390 5.1625 252 211 77
32.6010 -56.2390 4.8510 252 211 77
32.6361 -56.2390 4.5395 252 211 77
32.7396 -56.2390 4.2436 252 211 77
32.9064 -56.2390 3.9781 252 211 77
33.1281 -56.2390 3.7564 252 211 77
33.3936 -56.2390 3.5896 252 211 77
33.6895 -56.2390 3.4861 252 211 77
34.0010 -56.2390 3.4510 252 211 77
34.3125 -56.2390 3.4861 252 211 77
34.6084 -56.2390 3.5896 252 211 77
34.8739 -56.2390 3.7564 252 211 77
35.0956 -56.2390 3.9781 252 211 77
35.2624 -56.2390 4.2436 252 211 77
35.3659 -56.2390 4.5395 252 211 77
34.0010 -54.8390 4.8510 252 211 77
34.0010 -54.8741 5.1625 252 211 77
34.0010 -54.9776 5.4584 252 211 77
34.0010 -55.1444 5.7239 252 211 77
34.0010 -55.3661 5.9456 252 211 77
34.0010 -55.6316 6.1124 252 211 77
34.0010 -55.9275 6.2159 252 211 77
34.0010 -56.2390 6.2510 252 211 77
34.0010 -56.5505 6.2159 252 211 77
34.0010 -56.8464 6.1124 252 211 77
34.0010 -57.1119 5.9456 252 211 77
34.0010 -57.3336 5.7239 252 211 77
34.0010 -57.5004 5.4584 252 211 77
34.0010 -57.6039 5.1625 252 211 77
34.0010 -57.6390 4.8510 252 211 77
34.0010 -57.6039 4.5395 252 211 77
34.0010 -57.5004 4.2436 252 211 77
34.0010 -57.3336 3.9781 252 211 77
34.0010 -57.1119 3.7564 252 211 77
34.0010 -56.8464 3.5896 252 211 77
34.0010 -56.5505 3.4861 252 211 77
34.0010 -56.2390 3.4510 252 211 77
34.0010 -55.9275 3.4861 252 211 77
34.0010 -55.6316 3.5896 252 211 77
34.0010 -55.3661 3.7564 252 211 77
34.0010 -55.1444 3.9781 252 211 77
34.0010 -54.9776 4.2436 252 211 77
34.0010 -54.8741 4.5395 252 211 77
